<?xml version="1.0" encoding="UTF-8" standalone="no"?>
<!-- Created with Inkscape (http://www.inkscape.org/) -->

<svg
   width="206.05771mm"
   height="267.70923mm"
   viewBox="0 0 206.05771 267.70923"
   version="1.1"
   id="svg1"
   xml:space="preserve"
   inkscape:version="1.4.3 (0d15f75, 2025-12-25)"
   sodipodi:docname="Keypad.svg"
   xmlns:inkscape="http://www.inkscape.org/namespaces/inkscape"
   xmlns:sodipodi="http://sodipodi.sourceforge.net/DTD/sodipodi-0.dtd"
   xmlns="http://www.w3.org/2000/svg"
   xmlns:svg="http://www.w3.org/2000/svg"><sodipodi:namedview
     id="namedview1"
     pagecolor="#505050"
     bordercolor="#eeeeee"
     borderopacity="1"
     inkscape:showpageshadow="0"
     inkscape:pageopacity="0"
     inkscape:pagecheckerboard="0"
     inkscape:deskcolor="#505050"
     inkscape:document-units="mm"
     inkscape:zoom="1"
     inkscape:cx="-232"
     inkscape:cy="440.5"
     inkscape:window-width="3840"
     inkscape:window-height="2054"
     inkscape:window-x="2869"
     inkscape:window-y="-11"
     inkscape:window-maximized="1"
     inkscape:current-layer="layer1" /><defs
     id="defs1" /><g
     inkscape:label="Layer 1"
     inkscape:groupmode="layer"
     id="layer1"
     transform="translate(-189.36949,-18.872952)"><path
       id="rect5"
       style="fill:#000000"
       d="m 196.76956,18.872952 c -4.0996,0 -7.40007,3.300465 -7.40007,7.400065 V 279.18213 c 0,4.0996 3.30047,7.40006 7.40007,7.40006 h 191.25809 c 4.0996,0 7.39955,-3.30046 7.39955,-7.40006 V 26.273017 c 0,-4.0996 -3.29995,-7.400065 -7.39955,-7.400065 z m 14.04875,18.108972 h 38.46949 c 1.662,0 2.99981,1.337817 2.99981,2.999817 v 38.945943 c 0,1.662 -1.33781,2.999817 -2.99981,2.999817 h -38.46949 c -1.662,0 -3.00033,-1.337817 -3.00033,-2.999817 V 39.981741 c 0,-1.662 1.33833,-2.999817 3.00033,-2.999817 z m 62.34555,0 h 38.46948 c 1.662,0 2.99982,1.337817 2.99982,2.999817 v 38.945943 c 0,1.662 -1.33782,2.999817 -2.99982,2.999817 h -38.46948 c -1.662,0 -3.00034,-1.337817 -3.00034,-2.999817 V 39.981741 c 0,-1.662 1.33834,-2.999817 3.00034,-2.999817 z m 62.34503,0 h 38.47 c 1.662,0 2.99982,1.337817 2.99982,2.999817 v 38.945943 c 0,1.662 -1.33782,2.999817 -2.99982,2.999817 h -38.47 c -1.662,0 -2.99982,-1.337817 -2.99982,-2.999817 V 39.981741 c 0,-1.662 1.33782,-2.999817 2.99982,-2.999817 z m -102.87124,11.21947 -8.22689,3.325379 1.40147,2.867525 4.82606,-1.849499 v 18.163232 h 3.99872 V 49.116067 Z m 60.13483,0 c -2.44187,0 -4.81991,0.637394 -7.13393,1.912028 l 1.03559,2.680457 c 2.01998,-1.066814 3.94406,-1.599902 5.77226,-1.599902 1.13784,0 2.04576,0.269952 2.72335,0.810286 0.67759,0.540334 1.01596,1.399452 1.01596,2.577104 0,0.595753 -0.0829,1.108394 -0.24908,1.53789 -0.15342,0.429497 -0.42843,0.81057 -0.82476,1.143083 -0.39632,0.318659 -0.77956,0.574979 -1.15031,0.768945 -0.37076,0.193966 -0.92079,0.450287 -1.64952,0.768946 -0.95885,0.415641 -1.75752,0.796714 -2.39675,1.143082 -0.62645,0.332514 -1.26569,0.754998 -1.91771,1.267623 -0.63923,0.49877 -1.13806,1.039191 -1.49603,1.62109 -0.35797,0.581898 -0.652,1.2953 -0.88212,2.140438 -0.23012,0.831283 -0.3452,1.773225 -0.3452,2.826184 v 2.909383 h 13.86479 v -3.117122 h -10.56628 c 0,-0.706591 0.0702,-1.329836 0.21084,-1.870171 0.15341,-0.540334 0.29383,-0.962818 0.42168,-1.267622 0.14063,-0.304804 0.4415,-0.630834 0.90175,-0.977202 0.47303,-0.346368 0.8114,-0.574908 1.01596,-0.685746 0.21734,-0.110838 0.69716,-0.339378 1.43867,-0.685746 0.0383,-0.02771 0.07,-0.04134 0.0956,-0.04134 0.0256,-0.01385 0.0578,-0.028 0.0961,-0.04186 0.0384,-0.02771 0.07,-0.04816 0.0956,-0.06201 2.05833,-0.969831 3.39436,-1.662784 4.00803,-2.078426 1.22732,-0.817429 2.02017,-1.835895 2.37815,-3.055111 0.19177,-0.678881 0.28783,-1.46829 0.28783,-2.368847 0,-1.094524 -0.17946,-2.050614 -0.53743,-2.868042 -0.35797,-0.831284 -0.85628,-1.489642 -1.49552,-1.974557 -0.62645,-0.484915 -1.3359,-0.838208 -2.12855,-1.059884 -0.77986,-0.23553 -1.64292,-0.35295 -2.58899,-0.35295 z m 56.18779,0 -1.01906,2.359546 c 0.77472,0.275012 1.63909,0.478293 2.5926,0.610299 0.64362,0.088 1.49566,0.132292 2.55644,0.132292 h 2.82463 l -4.9165,5.857523 0.85835,1.567863 c 1.0131,-0.341015 1.94839,-0.511597 2.80655,-0.511597 1.2634,0 2.25881,0.324556 2.98586,0.973584 0.73897,0.649029 1.10846,1.589479 1.10846,2.821534 0,1.430063 -0.51235,2.57431 -1.53737,3.432348 -1.01311,0.858038 -2.41398,1.517704 -4.20181,1.979724 -1.38259,0.352016 -3.18225,0.594048 -5.39916,0.726054 v 2.557467 c 2.40761,-0.066 4.63637,-0.379486 6.68642,-0.940511 5.04167,-1.375061 7.56284,-3.916143 7.56284,-7.623307 0,-0.638029 -0.0838,-1.259459 -0.25063,-1.864486 -0.15494,-0.616027 -0.41086,-1.199223 -0.76843,-1.749247 -0.35756,-0.550025 -0.79283,-1.023018 -1.30534,-1.419035 -0.5006,-0.407018 -1.126,-0.714965 -1.87689,-0.923975 -0.75089,-0.209009 -1.57929,-0.28046 -2.48512,-0.214457 l 4.54081,-5.181079 v -1.881022 h -4.71961 c -1.68056,0 -2.9026,-0.04429 -3.66541,-0.132292 -0.75089,-0.088 -1.54331,-0.280212 -2.37763,-0.577226 z M 210.81831,99.163658 h 38.46949 c 1.662,0 2.99981,1.337822 2.99981,2.999822 v 38.94594 c 0,1.662 -1.33781,3.00033 -2.99981,3.00033 h -38.46949 c -1.662,0 -3.00033,-1.33833 -3.00033,-3.00033 v -38.94594 c 0,-1.662 1.33833,-2.999822 3.00033,-2.999822 z m 62.34555,0 h 38.46948 c 1.662,0 2.99982,1.337822 2.99982,2.999822 v 38.94594 c 0,1.662 -1.33782,3.00033 -2.99982,3.00033 h -38.46948 c -1.662,0 -3.00034,-1.33833 -3.00034,-3.00033 v -38.94594 c 0,-1.662 1.33834,-2.999822 3.00034,-2.999822 z m 62.34503,0 h 38.47 c 1.662,0 2.99982,1.337822 2.99982,2.999822 v 38.94594 c 0,1.662 -1.33782,3.00033 -2.99982,3.00033 h -38.47 c -1.662,0 -2.99982,-1.33833 -2.99982,-3.00033 v -38.94594 c 0,-1.662 1.33782,-2.999822 2.99982,-2.999822 z M 230.37732,110.2126 c -0.18249,1.05043 -0.37448,1.86859 -0.57619,2.45463 -0.2017,0.57497 -0.57161,1.47635 -1.10949,2.70371 l -4.72581,10.74766 0.57671,2.05672 h 8.54366 v 4.54443 h 2.42001 v -4.54443 h 2.70888 v -2.4877 h -2.70888 v -4.57801 h -2.42001 v 4.57801 h -6.05131 l 4.37958,-10.05107 c 0.74919,-1.72492 1.19589,-3.33385 1.33997,-4.82657 z m 127.80822,0.15813 c -0.60576,0.0306 -1.18999,0.0957 -1.75286,0.19585 -1.12577,0.20036 -2.1978,0.55124 -3.21634,1.05213 -1.00784,0.5009 -1.89816,1.21887 -2.67012,2.15388 -0.77195,0.93501 -1.37737,2.05353 -1.81695,3.35586 -0.67547,2.03699 -1.04568,4.29669 -1.11001,6.77892 -0.0429,1.83662 0.17162,3.41723 0.64337,4.74183 0.48248,1.31346 1.27059,2.34884 2.3642,3.10575 1.10433,0.75691 2.48195,1.13533 4.13308,1.13533 1.1901,0 2.25153,-0.2116 3.1843,-0.63458 0.93278,-0.43412 1.678,-1.01281 2.23553,-1.73633 0.55752,-0.73465 0.97594,-1.54761 1.2547,-2.4381 0.28948,-0.90161 0.43408,-1.85332 0.43408,-2.85512 0,-2.293 -0.55771,-4.09062 -1.67276,-5.39295 -1.11505,-1.21329 -2.62667,-1.81953 -4.53513,-1.81953 -0.7505,0 -1.55982,0.14467 -2.42827,0.43408 -0.85773,0.27828 -1.62997,0.6567 -2.31614,1.13533 0.42887,-2.49335 1.39389,-4.3023 2.89491,-5.42654 1.50102,-1.12424 3.58628,-1.62519 6.25595,-1.50275 v -2.27066 c -0.64866,-0.039 -1.27576,-0.043 -1.88154,-0.0124 z m -60.79009,0.0124 c -0.83432,0.29701 -1.62674,0.48974 -2.37763,0.57774 -0.76281,0.088 -1.98485,0.13178 -3.66541,0.13178 h -4.1832 l -0.59015,9.24026 1.55546,0.99012 c 1.41835,-0.61603 2.80072,-0.92398 4.14755,-0.92398 1.27532,0 2.27073,0.31349 2.98587,0.94052 0.7628,0.67103 1.14411,1.62255 1.14411,2.8546 0,1.44107 -0.51235,2.59085 -1.53737,3.44889 -1.01311,0.85804 -2.41347,1.5177 -4.2013,1.97972 -1.38258,0.35202 -3.18276,0.59405 -5.39967,0.72605 v 2.54145 c 2.40761,-0.066 4.63689,-0.37948 6.68693,-0.94051 5.04168,-1.37506 7.56233,-3.91614 7.56233,-7.62331 0,-0.89104 -0.16085,-1.74948 -0.48265,-2.57452 -0.32181,-0.82503 -0.79871,-1.52899 -1.43041,-2.11201 -1.0727,-1.02305 -2.63391,-1.53428 -4.68395,-1.53428 -1.10845,0 -2.21692,0.15951 -3.32538,0.47853 l 0.32195,-5.09892 h 3.34294 c 1.06078,0 1.91282,-0.0443 2.55644,-0.13229 0.95351,-0.132 1.81788,-0.33528 2.5926,-0.6103 z m 57.70243,10.03453 c 1.22225,0 2.17618,0.36169 2.86235,1.0852 0.7398,0.79031 1.11001,2.05402 1.11001,3.79047 0,1.59174 -0.37553,2.85494 -1.12603,3.78995 -0.7398,0.93501 -1.80123,1.4025 -3.1843,1.4025 -0.7934,0 -1.4793,-0.15008 -2.05827,-0.45062 -0.56823,-0.31167 -1.01897,-0.74621 -1.35134,-1.30276 -0.32165,-0.55656 -0.55734,-1.17953 -0.70745,-1.86966 -0.15009,-0.69012 -0.22531,-1.45829 -0.22531,-2.30425 0,-0.81257 0.0646,-1.54727 0.19327,-2.204 0.67546,-0.56768 1.41538,-1.02977 2.2195,-1.38596 0.81485,-0.36733 1.57067,-0.55087 2.26757,-0.55087 z m -144.27957,40.92773 h 38.46949 c 1.662,0 2.99981,1.33782 2.99981,2.99982 v 38.94594 c 0,1.662 -1.33781,3.00034 -2.99981,3.00034 h -38.46949 c -1.662,0 -3.00033,-1.33834 -3.00033,-3.00034 v -38.94594 c 0,-1.662 1.33833,-2.99982 3.00033,-2.99982 z m 62.34555,0 h 38.46948 c 1.662,0 2.99982,1.33782 2.99982,2.99982 v 38.94594 c 0,1.662 -1.33782,3.00034 -2.99982,3.00034 h -38.46948 c -1.662,0 -3.00034,-1.33834 -3.00034,-3.00034 v -38.94594 c 0,-1.662 1.33834,-2.99982 3.00034,-2.99982 z m 62.34503,0 h 38.47 c 1.662,0 2.99982,1.33782 2.99982,2.99982 v 38.94594 c 0,1.662 -1.33782,3.00034 -2.99982,3.00034 h -38.47 c -1.662,0 -2.99982,-1.33834 -2.99982,-3.00034 v -38.94594 c 0,-1.662 1.33782,-2.99982 2.99982,-2.99982 z m -99.18103,11.21947 c -0.79738,0.20051 -1.60021,0.35088 -2.40915,0.45114 -0.85518,0.10025 -1.9473,0.15038 -3.27629,0.15038 h -7.71374 v 2.5063 h 10.36578 c -1.90679,2.85167 -3.22417,5.03504 -3.95222,6.54999 -0.97073,2.00508 -1.58888,3.88231 -1.85466,5.63118 -0.25425,1.74888 -0.38138,4.15485 -0.38138,7.21817 h 3.01636 v -1.23662 c 0,-2.45065 0.11509,-4.3888 0.34623,-5.81463 0.28891,-1.80457 0.93057,-3.65378 1.92443,-5.54747 0.94761,-1.84913 2.54227,-4.34995 4.7842,-7.50238 z m 56.14903,0 c -0.80734,0 -1.57253,0.11797 -2.29598,0.35347 -0.72347,0.2355 -1.36306,0.58305 -1.91875,1.04283 -0.55571,0.44857 -0.99581,1.00337 -1.32085,1.66501 -0.32501,0.66165 -0.48782,1.42422 -0.48782,2.28772 0,0.61679 0.0578,1.16626 0.17311,1.64848 0.11534,0.48221 0.27259,0.91424 0.47181,1.29553 0.2097,0.37007 0.45085,0.70061 0.72347,0.99218 0.2726,0.29158 0.56603,0.55516 0.88056,0.79065 -0.51375,0.29157 -0.97998,0.62796 -1.39939,1.00924 -0.4194,0.38129 -0.78113,0.80748 -1.08521,1.27848 -0.29357,0.471 -0.5247,0.99284 -0.69246,1.56476 -0.16776,0.56071 -0.25167,1.166 -0.25167,1.81643 0,1.07657 0.17836,2.03524 0.53485,2.87631 0.36698,0.84107 0.8654,1.55316 1.49449,2.1363 0.63959,0.57193 1.39421,1.00928 2.26446,1.31207 0.87024,0.29157 1.81379,0.4377 2.83083,0.4377 1.01705,0 1.95557,-0.14613 2.81534,-0.4377 0.87024,-0.30279 1.62538,-0.7343 2.26497,-1.29501 0.63957,-0.57193 1.13748,-1.26702 1.49397,-2.08567 0.36697,-0.82985 0.55035,-1.77204 0.55035,-2.82618 0,-0.75135 -0.0789,-1.41296 -0.23616,-1.98489 -0.14678,-0.57193 -0.36131,-1.08209 -0.6444,-1.53066 -0.2831,-0.44857 -0.62927,-0.84128 -1.03818,-1.1777 -0.39844,-0.33643 -0.84408,-0.63933 -1.33687,-0.90847 0.72347,-0.63922 1.28467,-1.36779 1.6831,-2.18643 0.39841,-0.81864 0.59738,-1.72735 0.59738,-2.72542 0,-0.85228 -0.16228,-1.60902 -0.48731,-2.27066 -0.32503,-0.67286 -0.76567,-1.2335 -1.32137,-1.68207 -0.55571,-0.45978 -1.20032,-0.80733 -1.93425,-1.04283 -0.73394,-0.2355 -1.51019,-0.35347 -2.32802,-0.35347 z m 62.25098,0 c -1.19009,0 -2.25152,0.21701 -3.1843,0.65113 -0.93278,0.42298 -1.678,1.00167 -2.23552,1.73632 -0.55753,0.72352 -0.98124,1.53648 -1.27073,2.4381 -0.27876,0.89048 -0.41806,1.83627 -0.41806,2.83807 0,2.293 0.55772,4.09062 1.67277,5.39295 1.11505,1.21329 2.62667,1.82004 4.53512,1.82004 0.7505,0 1.55453,-0.13927 2.41226,-0.41754 0.86845,-0.28941 1.64598,-0.67323 2.33216,-1.15187 -0.42886,2.49336 -1.3939,4.30231 -2.89492,5.42654 -1.50102,1.12424 -3.58627,1.6252 -6.25595,1.50275 v 2.27067 c 1.29733,0.0779 2.50864,0.0164 3.63441,-0.18397 1.12577,-0.20036 2.1925,-0.55072 3.20032,-1.05162 1.01856,-0.50089 1.91418,-1.21886 2.68614,-2.15387 0.77194,-0.93501 1.37737,-2.05353 1.81694,-3.35587 0.67548,-2.03698 1.04569,-4.29669 1.11001,-6.77891 0.0429,-1.83663 -0.17693,-3.41183 -0.65939,-4.7253 -0.47176,-1.32459 -1.25989,-2.36537 -2.3642,-3.12229 -1.0936,-0.75691 -2.46593,-1.13533 -4.11706,-1.13533 z m -62.25098,2.37195 c 0.48231,0 0.93852,0.0616 1.36839,0.185 0.4299,0.12336 0.8072,0.31413 1.13223,0.57206 0.32504,0.24671 0.58228,0.56078 0.77102,0.94206 0.19921,0.38129 0.29869,0.8298 0.29869,1.34566 0,0.41492 -0.0317,0.80179 -0.0946,1.16065 -0.0524,0.34764 -0.14637,0.68403 -0.28267,1.00924 -0.13632,0.314 -0.31466,0.62222 -0.53485,0.92501 -0.22018,0.30278 -0.49301,0.61101 -0.81804,0.92501 -0.54521,-0.14579 -1.13204,-0.2914 -1.76113,-0.43719 -0.61861,-0.157 -1.1954,-0.37009 -1.73013,-0.63923 -0.53473,-0.28036 -0.98038,-0.65023 -1.33687,-1.11001 -0.35649,-0.45979 -0.53485,-1.07092 -0.53485,-1.83348 0,-0.50465 0.0889,-0.94784 0.26717,-1.32912 0.18873,-0.38129 0.44043,-0.69535 0.75499,-0.94206 0.31455,-0.25793 0.68683,-0.4487 1.11673,-0.57206 0.42987,-0.13457 0.8911,-0.20154 1.38389,-0.20154 z m 62.25098,0.0326 c 0.79341,0 1.47401,0.15548 2.04225,0.46715 0.57897,0.30054 1.02968,0.72916 1.35134,1.28571 0.33237,0.55655 0.57336,1.18005 0.72347,1.87017 0.1501,0.69013 0.22531,1.45829 0.22531,2.30425 0,0.81257 -0.0646,1.54727 -0.19327,2.204 -0.67545,0.56769 -1.42067,1.03518 -2.23552,1.4025 -0.80412,0.3562 -1.55464,0.53434 -2.25154,0.53434 -1.22226,0 -2.17618,-0.36221 -2.86236,-1.08573 -0.7398,-0.7903 -1.11001,-2.0535 -1.11001,-3.78994 0,-1.59175 0.37021,-2.85495 1.11001,-3.78995 0.75052,-0.93501 1.81725,-1.4025 3.20032,-1.4025 z m -64.12218,8.83202 c 0.44035,0.11214 0.90158,0.22427 1.38389,0.33641 0.49279,0.11214 0.96959,0.24711 1.43092,0.40411 0.46134,0.14578 0.90198,0.32488 1.32137,0.53795 0.41939,0.20186 0.78617,0.45428 1.10071,0.75706 0.31455,0.30279 0.56125,0.66733 0.73949,1.09347 0.18873,0.42615 0.28318,0.92515 0.28318,1.49707 0,0.65043 -0.10501,1.23923 -0.31471,1.7663 -0.19921,0.52707 -0.49263,0.97559 -0.88056,1.34566 -0.37747,0.37007 -0.84421,0.65597 -1.39992,0.85782 -0.55569,0.20186 -1.17971,0.30283 -1.87172,0.30283 -0.69201,0 -1.31551,-0.10097 -1.8712,-0.30283 -0.55571,-0.20185 -1.028,-0.48775 -1.41593,-0.85782 -0.37746,-0.38129 -0.67087,-0.84097 -0.88057,-1.37925 -0.19922,-0.5495 -0.29869,-1.16646 -0.29869,-1.85053 0,-0.98686 0.22559,-1.8504 0.67644,-2.59054 0.45086,-0.74014 1.11655,-1.37943 1.9973,-1.91771 z m -79.78738,39.72574 h 38.46949 c 1.662,0 2.99981,1.33833 2.99981,3.00033 v 38.94594 c 0,1.662 -1.33781,2.99982 -2.99981,2.99982 h -38.46949 c -1.662,0 -3.00033,-1.33782 -3.00033,-2.99982 V 226.5275 c 0,-1.662 1.33833,-3.00033 3.00033,-3.00033 z m 62.34555,0 h 38.46948 c 1.662,0 2.99982,1.33833 2.99982,3.00033 v 38.94594 c 0,1.662 -1.33782,2.99982 -2.99982,2.99982 h -38.46948 c -1.662,0 -3.00034,-1.33782 -3.00034,-2.99982 V 226.5275 c 0,-1.662 1.33834,-3.00033 3.00034,-3.00033 z m 62.34503,0 h 38.47 c 1.662,0 2.99982,1.33833 2.99982,3.00033 v 38.94594 c 0,1.662 -1.33782,2.99982 -2.99982,2.99982 h -38.47 c -1.662,0 -2.99982,-1.33782 -2.99982,-2.99982 V 226.5275 c 0,-1.662 1.33782,-3.00033 2.99982,-3.00033 z m -43.10383,11.21947 c -1.02384,0 -1.97178,0.29812 -2.84427,0.89452 -0.86356,0.58283 -1.61621,1.38276 -2.25723,2.39933 -0.63209,1.01658 -1.1305,2.20961 -1.49551,3.5786 -0.35613,1.36899 -0.53434,2.82559 -0.53434,4.37079 0,1.55875 0.17821,3.02299 0.53434,4.39198 0.36501,1.36899 0.86342,2.5615 1.49551,3.57807 0.64102,1.01658 1.39367,1.8231 2.25723,2.4195 0.87249,0.58283 1.82043,0.87436 2.84427,0.87436 1.01492,0 1.95888,-0.29153 2.83135,-0.87436 0.87249,-0.5964 1.62462,-1.40292 2.25671,-2.4195 0.63211,-1.01657 1.12598,-2.20908 1.48208,-3.57807 0.36503,-1.36899 0.54777,-2.83323 0.54777,-4.39198 0,-1.5452 -0.18274,-3.0018 -0.54777,-4.37079 -0.3561,-1.36899 -0.84997,-2.56202 -1.48208,-3.5786 -0.63209,-1.01657 -1.38422,-1.8165 -2.25671,-2.39933 -0.87247,-0.5964 -1.81643,-0.89452 -2.83135,-0.89452 z m -63.86638,0.93172 -0.37104,8.17263 -7.44761,-2.14871 -0.98909,3.0608 7.26261,2.86546 -4.20284,6.80527 2.44119,1.88825 4.8519,-6.34948 4.8519,6.34948 2.47272,-1.88825 -4.26486,-6.74016 7.2316,-2.86546 -0.98908,-3.06079 -7.38612,2.08359 -0.37103,-8.17263 z m 124.80788,0 -1.50378,5.22242 h -4.58732 l -0.79013,2.57401 h 4.62607 l -1.50378,5.05085 h -4.45244 l -0.71314,2.62361 h 4.45244 l -1.54202,5.17281 h 2.25516 l 1.54202,-5.17281 h 4.22145 l -1.34927,5.17281 h 2.10116 l 1.50327,-5.17281 h 4.5682 l 0.71313,-2.62361 h -4.52944 l 1.48415,-5.05085 h 4.47208 l 0.75137,-2.57401 h -4.54907 l 1.50378,-5.22242 h -2.12028 l -1.50379,5.22242 h -4.47156 l 1.50327,-5.22242 z m -60.9415,2.281 c 0.69442,0 1.33529,0.20975 1.92288,0.62994 0.58758,0.40663 1.09104,0.97597 1.50947,1.7079 0.42734,0.71838 0.76111,1.56554 1.00149,2.54145 0.24038,0.97591 0.36018,2.02622 0.36018,3.15123 0,1.12501 -0.1198,2.18243 -0.36018,3.1719 -0.24038,0.97591 -0.57415,1.82966 -1.00149,2.5616 -0.41843,0.71838 -0.92189,1.28772 -1.50947,1.7079 -0.58759,0.40663 -1.22846,0.6103 -1.92288,0.6103 -0.69443,0 -1.3353,-0.20367 -1.92288,-0.6103 -0.58759,-0.42018 -1.09505,-0.98952 -1.52239,-1.7079 -0.42733,-0.73194 -0.76111,-1.58569 -1.00149,-2.5616 -0.24037,-0.98947 -0.3607,-2.04689 -0.3607,-3.1719 0,-1.12501 0.12033,-2.17532 0.3607,-3.15123 0.24038,-0.97591 0.57416,-1.82307 1.00149,-2.54145 0.42734,-0.73193 0.9348,-1.30127 1.52239,-1.7079 0.58758,-0.42019 1.22845,-0.62994 1.92288,-0.62994 z m 60.80663,5.51543 h 4.43332 l -1.50379,5.05085 h -4.29844 z" /></g></svg>
